HIERARCHY
ROOT SpineBase
{
  OFFSET 0.000000 0.000000 0.000000
  CHANNELS 6 Xposition Yposition Zposition Zrotation Xrotation Yrotation
  JOINT SpineMid
  {
    OFFSET 0.000000 31.859963 0.000000
    CHANNELS 3 Zrotation Xrotation Yrotation
    JOINT SpineShoulder
    {
      OFFSET -0.366343 23.636545 -0.708713
      CHANNELS 3 Zrotation Xrotation Yrotation
      JOINT Neck
      {
        OFFSET -0.248903 7.832308 -0.537264
        CHANNELS 3 Zrotation Xrotation Yrotation
        JOINT Head
        {
          OFFSET -1.305256 12.447822 4.390893
          CHANNELS 3 Zrotation Xrotation Yrotation
          End Site
          {
            OFFSET 0 0 0
          }
        }
      }
      JOINT ShoulderLeft
      {
        OFFSET -6.254848 -2.425629 13.186821
        CHANNELS 3 Zrotation Xrotation Yrotation
        JOINT ElbowLeft
        {
          OFFSET -3.996423 -27.368962 -14.821632
          CHANNELS 3 Zrotation Xrotation Yrotation
          JOINT WristLeft
          {
            OFFSET 0.840745 -30.006057 -6.543127
            CHANNELS 3 Zrotation Xrotation Yrotation
            JOINT HandLeft
            {
              OFFSET -4.520066 -0.176398 1.575546
              CHANNELS 3 Zrotation Xrotation Yrotation
              JOINT HandTipLeft
              {
                OFFSET -2.159274 -3.177938 1.047825
                CHANNELS 3 Zrotation Xrotation Yrotation
                End Site
                {
                  OFFSET 0 0 0
                }
              }
              JOINT ThumbLeft
              {
                OFFSET -3.290475 1.492497 -2.743982
                CHANNELS 3 Zrotation Xrotation Yrotation
                End Site
                {
                  OFFSET 0 0 0
                }
              }
            }
          }
        }
      }
      JOINT ShoulderRight
      {
        OFFSET -2.527066 -5.361880 -10.045740
        CHANNELS 3 Zrotation Xrotation Yrotation
        JOINT ElbowRight
        {
          OFFSET -7.391296 -26.105422 -1.497846
          CHANNELS 3 Zrotation Xrotation Yrotation
          JOINT WristRight
          {
            OFFSET -5.037830 -21.641215 2.693988
            CHANNELS 3 Zrotation Xrotation Yrotation
            JOINT HandRight
            {
              OFFSET -0.775476 -4.019979 1.254634
              CHANNELS 3 Zrotation Xrotation Yrotation
              JOINT HandTipRight
              {
                OFFSET -1.244433 -5.616043 2.033800
                CHANNELS 3 Zrotation Xrotation Yrotation
                End Site
                {
                  OFFSET 0 0 0
                }
              }
              JOINT ThumbRight
              {
                OFFSET -2.053737 0.610282 -0.082230
                CHANNELS 3 Zrotation Xrotation Yrotation
                End Site
                {
                  OFFSET 0 0 0
                }
              }
            }
          }
        }
      }
    }
  }
  JOINT HipLeft
  {
    OFFSET -2.366749 0.685046 -1.892563
    CHANNELS 3 Zrotation Xrotation Yrotation
    JOINT KneeLeft
    {
      OFFSET 8.777835 -26.497458 0.780629
      CHANNELS 3 Zrotation Xrotation Yrotation
      JOINT AnkleLeft
      {
        OFFSET 4.621272 -27.880149 4.181734
        CHANNELS 3 Zrotation Xrotation Yrotation
        JOINT FootLeft
        {
          OFFSET -8.671069 -2.960753 -4.021235
          CHANNELS 3 Zrotation Xrotation Yrotation
          End Site
          {
            OFFSET 0 0 0
          }
        }
      }
    }
  }
  JOINT HipRight
  {
    OFFSET -0.001789 0.369249 -4.146035
    CHANNELS 3 Zrotation Xrotation Yrotation
    JOINT KneeRight
    {
      OFFSET 4.040377 -23.556025 3.018359
      CHANNELS 3 Zrotation Xrotation Yrotation
      JOINT AnkleRight
      {
        OFFSET 8.341704 -32.444669 2.066677
        CHANNELS 3 Zrotation Xrotation Yrotation
        JOINT FootRight
        {
          OFFSET -9.453394 -2.643000 -4.407703
          CHANNELS 3 Zrotation Xrotation Yrotation
          End Site
          {
            OFFSET 0 0 0
          }
        }
      }
    }
  }
}
MOTION
Frames: 13
Frame Time: 0.033333
115.082816 62.553590 308.188154 -0.000000 0.000000 43.617176 -0.000000 0.000000 -43.617176 -0.000000 0.000000 0.000000 -0.000000 0.000000 0.000000 0.000000 0.000000 0.000000 -0.000000 0.000000 0.000000 -0.000000 0.000000 0.000000 -0.000000 0.000000 0.000000 -0.000000 0.000000 0.000000 0.000000 0.000000 0.000000 0.000000 0.000000 0.000000 -0.000000 0.000000 0.000000 -0.000000 0.000000 0.000000 -0.000000 0.000000 0.000000 -0.000000 0.000000 0.000000 0.000000 0.000000 0.000000 0.000000 0.000000 0.000000 -0.000000 0.000000 -43.617176 -0.000000 0.000000 0.000000 -0.000000 0.000000 0.000000 0.000000 0.000000 0.000000 -0.000000 0.000000 -43.617176 -0.000000 0.000000 0.000000 -0.000000 0.000000 0.000000 0.000000 0.000000 0.000000
115.084109 62.450166 308.191918 -0.011151 0.014670 43.218683 -0.001919 -0.018327 -43.218682 -0.000000 0.000000 0.000000 -0.000000 0.000000 0.000000 0.000000 0.000000 0.000000 -0.098207 1.773468 -0.202556 0.104525 -1.773107 0.205693 1.584438 0.446632 4.420891 0.698127 1.631562 -5.207828 0.000000 0.000000 0.000000 0.000000 0.000000 0.000000 1.237135 0.323855 -0.166659 -1.930236 -0.750189 0.164531 3.536428 1.257076 0.674579 -2.851027 -0.801271 -0.750107 0.000000 0.000000 0.000000 0.000000 0.000000 0.000000 -0.821003 0.046805 -43.407792 0.639822 0.515537 0.186435 -0.000000 0.000000 0.000000 0.000000 0.000000 0.000000 -0.001919 -0.018327 -43.218682 -0.000000 0.000000 0.000000 8.450713 -4.281892 2.257178 0.000000 0.000000 0.000000
115.086521 62.358102 308.195053 -0.012191 0.026982 42.783026 -0.009379 -0.028084 -42.783026 -0.000000 0.000000 0.000000 -0.000000 0.000000 0.000000 0.000000 0.000000 0.000000 -0.178266 3.236802 -0.365511 0.983969 -3.520393 0.243825 2.036376 1.189677 7.805418 1.770945 2.808601 -9.093711 0.000000 0.000000 0.000000 0.000000 0.000000 0.000000 2.232334 0.559213 -0.298893 -3.361233 -1.286080 0.282568 6.374753 2.296863 1.176214 -6.474336 -1.211225 -1.927877 0.000000 0.000000 0.000000 0.000000 0.000000 0.000000 -1.508667 0.069595 -43.131567 1.709802 1.886391 0.563091 -0.557900 -0.927180 -0.241783 0.000000 0.000000 0.000000 -1.177925 0.879244 -42.985550 2.732102 0.705656 0.426071 18.076338 -9.692756 5.950135 0.000000 0.000000 0.000000
115.090052 62.277399 308.197559 -0.003144 0.036947 42.321977 -0.022551 -0.029434 -42.321981 -0.000000 0.000000 0.000000 -0.000000 0.000000 0.000000 0.000000 0.000000 0.000000 -0.242931 4.389215 -0.490035 1.348116 -4.762250 0.353184 2.717512 1.693888 10.071601 2.916975 3.529339 -11.776460 0.000000 0.000000 0.000000 0.000000 0.000000 0.000000 2.965471 0.702230 -0.389910 -4.299176 -1.610955 0.363700 8.494376 3.104562 1.534186 -8.779072 -1.736006 -2.626629 0.000000 0.000000 0.000000 0.000000 0.000000 0.000000 -2.054705 0.068538 -42.798811 2.258357 2.560337 0.749310 -0.803824 -1.552117 0.703286 0.000000 0.000000 0.000000 -1.672311 1.216316 -42.602030 3.807073 1.005491 0.590592 30.163146 -14.279052 11.325059 0.000000 0.000000 0.000000
115.094704 62.208056 308.199436 0.015971 0.044571 41.855200 -0.041636 -0.022541 -41.855214 -0.000000 0.000000 0.000000 -0.000000 0.000000 0.000000 0.000000 0.000000 0.000000 -0.294355 5.231619 -0.577098 1.622702 -5.660810 0.439165 3.258300 2.102351 11.465944 3.905655 3.819186 -13.335629 0.000000 0.000000 0.000000 0.000000 0.000000 0.000000 3.421427 0.750369 -0.434748 -4.745383 -1.726799 0.413322 9.876539 3.668590 1.771626 -10.386715 -2.233370 -3.096660 0.000000 0.000000 0.000000 0.000000 0.000000 0.000000 -2.452345 0.045678 -42.427900 2.603282 3.053976 0.879333 -0.902111 -1.838172 0.854318 0.000000 0.000000 0.000000 -2.102071 1.486453 -42.198837 4.692625 1.269570 0.725503 41.906886 -17.333547 17.265499 0.000000 0.000000 0.000000
115.100475 62.150074 308.200683 0.045140 0.049861 41.409587 -0.066835 -0.007539 -41.409611 -0.000000 0.000000 0.000000 -0.000000 0.000000 0.000000 0.000000 0.000000 0.000000 -0.334090 5.765581 -0.627467 1.805102 -6.218607 0.493992 3.702392 2.406811 12.092057 4.576823 3.706315 -13.821138 0.000000 0.000000 0.000000 0.000000 0.000000 0.000000 3.590342 0.702235 -0.430575 -4.698128 -1.634862 0.432826 10.503280 3.979462 1.904004 -11.258643 -2.716725 -3.310894 0.000000 0.000000 0.000000 0.000000 0.000000 0.000000 -2.696494 0.004800 -42.044608 2.744612 3.366991 0.956579 -0.920005 -2.015905 0.962380 0.000000 0.000000 0.000000 -2.465206 1.692106 -41.803992 5.391393 1.497648 0.832498 51.045621 -18.774178 22.266343 0.000000 0.000000 0.000000
115.085257 62.114171 308.210773 0.062651 0.038611 40.131179 -0.072787 0.010861 -40.131193 -0.000000 0.000000 0.000000 -0.000000 0.000000 0.000000 0.000000 0.000000 0.000000 -0.480857 6.055335 -0.582146 1.976955 -6.438043 0.471331 4.133813 2.551676 11.916202 2.699392 1.957548 -12.445645 0.000000 0.000000 0.000000 0.000000 0.000000 0.000000 3.290674 0.462442 -0.335729 -3.288024 -0.480943 0.308641 9.374109 2.901174 2.186109 -11.671068 -3.068844 -3.366045 0.000000 0.000000 0.000000 0.000000 0.000000 0.000000 -2.683387 -0.137168 -40.788372 2.567543 3.492344 0.975178 -0.833464 -2.106204 1.062878 0.000000 0.000000 0.000000 -2.472835 1.650860 -40.518833 5.422872 1.581508 0.853731 62.810753 -19.328623 28.686440 0.000000 0.000000 0.000000
115.075681 62.086097 308.228145 0.094490 0.024320 39.823473 -0.088145 0.041835 -39.823461 -0.000000 0.000000 0.000000 -0.000000 0.000000 0.000000 0.000000 0.000000 0.000000 -0.598100 5.017956 -0.373921 1.765376 -5.315157 0.275646 4.993529 2.669299 9.660906 5.395927 -1.212674 -6.704035 0.000000 0.000000 0.000000 0.000000 0.000000 0.000000 2.472520 0.027466 -0.151178 -2.472439 -0.033962 0.149852 9.239894 2.551261 2.241849 -10.499520 -2.527676 -2.989522 0.000000 0.000000 0.000000 0.000000 0.000000 0.000000 -2.370291 -0.249315 -40.434547 1.964292 3.314268 0.897601 -0.556697 -2.052479 1.125122 0.000000 0.000000 0.000000 -2.632240 1.762167 -40.229566 5.770711 1.688603 0.904527 60.162497 -19.338307 27.614947 0.000000 0.000000 0.000000
115.110456 62.052846 308.221296 0.177924 0.028388 40.063945 -0.154442 0.092793 -40.063864 -0.000000 0.000000 0.000000 -0.000000 0.000000 0.000000 0.000000 0.000000 0.000000 -0.558550 4.401081 -0.312294 1.594052 -4.583173 0.210589 5.581236 2.715375 8.066985 2.876812 -2.355279 -4.742062 0.000000 0.000000 0.000000 0.000000 0.000000 0.000000 1.843514 -0.305954 -0.014303 -0.396163 0.427046 0.167334 6.775281 2.636239 1.738406 -6.729393 -3.035633 -1.486588 0.000000 0.000000 0.000000 0.000000 0.000000 0.000000 -2.299289 -0.243473 -40.653482 1.728831 3.191870 0.858354 -0.441038 -1.955430 1.054010 0.000000 0.000000 0.000000 -2.936161 1.889045 -40.510054 6.148119 1.867782 0.964733 43.451271 -18.003683 19.149048 0.000000 0.000000 0.000000
115.161890 62.016373 308.199914 0.268923 0.028882 41.365157 -0.220917 0.156043 -41.364924 -0.000000 0.000000 0.000000 -0.000000 0.000000 0.000000 0.000000 0.000000 0.000000 -0.306630 4.861655 -0.519113 1.561206 -5.133816 0.382178 4.781892 2.560849 8.415650 3.546509 0.717515 -7.520634 0.000000 0.000000 0.000000 0.000000 0.000000 0.000000 1.542092 -0.209426 -0.026475 -0.010573 0.531702 0.138261 5.313027 3.279284 1.169901 -5.923441 -5.307537 -0.810403 0.000000 0.000000 0.000000 0.000000 0.000000 0.000000 -2.072667 -0.135951 -41.879468 1.263840 2.837052 0.740259 -0.174135 -1.741568 0.910459 0.000000 0.000000 0.000000 -3.253341 2.018944 -41.863020 6.464504 2.122162 1.026101 32.351650 -15.839763 13.622283 0.000000 0.000000 0.000000
115.218843 61.985967 308.169603 0.362961 0.055945 41.854590 -0.307678 0.200512 -41.854229 -0.000000 0.000000 0.000000 -0.000000 0.000000 0.000000 0.000000 0.000000 0.000000 -0.181238 4.916704 -0.598392 1.498967 -5.185470 0.445320 4.881542 2.633912 8.720484 5.435800 0.264001 -6.944445 0.000000 0.000000 0.000000 0.000000 0.000000 0.000000 1.516989 -0.397048 0.030751 0.125463 0.770826 0.080837 4.814909 2.989998 1.118457 -3.478238 -6.034602 0.404885 0.000000 0.000000 0.000000 0.000000 0.000000 0.000000 -2.166136 0.003468 -42.348887 1.338171 2.738234 0.718065 -0.176908 -1.681812 0.847917 0.000000 0.000000 0.000000 -3.508401 2.090620 -42.384709 6.599057 2.288057 1.062622 21.014464 -12.460770 8.913994 0.000000 0.000000 0.000000
115.279106 61.966266 308.126547 0.443317 0.097538 42.242983 -0.393761 0.225824 -42.242584 -0.000000 0.000000 0.000000 -0.000000 0.000000 0.000000 0.000000 0.000000 0.000000 -0.056887 5.027069 -0.684881 1.454284 -5.303880 0.515003 -2.587273 -0.638614 9.365505 14.109838 3.392958 -8.649627 0.000000 0.000000 0.000000 0.000000 0.000000 0.000000 1.546695 -0.373049 0.021997 0.121785 0.640090 0.119352 3.191245 4.280964 0.324144 -0.955624 -7.254276 1.598600 0.000000 0.000000 0.000000 0.000000 0.000000 0.000000 -2.400155 0.216080 -42.729589 1.641348 2.580950 0.699835 -0.237316 -1.551432 0.835198 0.000000 0.000000 0.000000 -3.767872 2.181334 -42.803783 6.763417 2.404312 1.095041 11.727413 -8.874815 5.131374 0.000000 0.000000 0.000000
115.342217 61.929851 308.101121 0.516234 0.123934 42.303299 -0.465218 0.255794 -42.302819 -0.000000 0.000000 0.000000 -0.000000 0.000000 0.000000 0.000000 0.000000 0.000000 0.008411 5.108879 -0.733696 1.431942 -5.381340 0.555619 -1.070778 0.051931 9.352867 11.059987 4.959327 -10.590009 0.000000 0.000000 0.000000 0.000000 0.000000 0.000000 1.653172 -0.159770 -0.047517 -0.222307 0.121858 0.236070 2.652329 4.592989 0.041500 0.914203 -6.978311 2.299698 0.000000 0.000000 0.000000 0.000000 0.000000 0.000000 -2.723555 0.481728 -42.792604 2.190013 2.545706 0.722926 -0.435126 -1.490087 0.729420 0.000000 0.000000 0.000000 -3.971977 2.275233 -42.883498 6.872038 2.410815 1.104845 2.390486 -4.481492 1.907754 0.000000 0.000000 0.000000
